<svg id="Capa_1" enable-background="new 0 0 512 512" height="512" viewBox="0 0 512 512" width="512" xmlns="http://www.w3.org/2000/svg"><g><g><path d="m369.771 96.542c-4.272-13.054 7.519-34.492-.447-45.351-8.032-10.95-32.089-6.154-43.118-14.118-10.903-7.872-13.895-32.255-26.985-36.473-12.619-4.065-29.241 13.844-43.221 13.844s-30.603-17.908-43.222-13.843c-13.09 4.217-16.082 28.6-26.984 36.473-11.029 7.964-35.086 3.167-43.118 14.118-7.965 10.859 3.825 32.297-.447 45.351-4.126 12.607-26.447 22.862-26.447 36.839s22.321 24.232 26.447 36.839c4.272 13.054-7.519 34.492.447 45.351 8.032 10.951 32.089 6.154 43.118 14.118 10.903 7.873 13.895 32.256 26.985 36.473 12.619 4.065 29.241-13.843 43.221-13.843s30.603 17.908 43.222 13.843c13.09-4.217 16.082-28.6 26.984-36.473 11.029-7.963 35.086-3.167 43.118-14.118 7.965-10.859-3.825-32.297.447-45.351 4.126-12.607 26.447-22.862 26.447-36.839s-22.321-24.232-26.447-36.84z" fill="#b3e59f"/><g><path d="m256 14.444c.682 1.311 2.174 2.024 3.606 1.658 3.047-.78 5.974-.932 8.713-.05 13.09 4.217 16.082 28.6 26.985 36.473 11.029 7.964 35.086 3.167 43.118 14.118 7.965 10.859-3.826 32.297.447 45.351 4.126 12.608 26.447 22.863 26.447 36.839s-22.321 24.232-26.447 36.839c-3.567 10.899 4.055 27.638 2.036 39.19 10.891-1.694 23.13-2.078 28.419-9.289 7.965-10.859-3.825-32.297.447-45.351 4.126-12.607 26.447-22.862 26.447-36.839s-22.321-24.232-26.447-36.839c-4.272-13.054 7.519-34.492-.447-45.351-8.032-10.95-32.089-6.154-43.118-14.118-10.903-7.874-13.895-32.257-26.985-36.475-12.619-4.065-29.241 13.844-43.221 13.844z" fill="#95d6a4"/></g><ellipse cx="279.494" cy="130.01" fill="#e17f85" rx="69.23" ry="68.868"/><path d="m279.494 61.142c-5.314 0-10.48.615-15.451 1.743 30.793 6.986 53.779 34.376 53.779 67.125s-22.986 60.139-53.779 67.126c4.97 1.128 10.137 1.743 15.451 1.743 38.235 0 69.23-30.833 69.23-68.868s-30.996-68.869-69.23-68.869z" fill="#de646e"/><ellipse cx="222.523" cy="176.121" fill="#e17f85" rx="69.23" ry="68.868"/><path d="m222.523 107.252c-5.314 0-10.48.616-15.451 1.743 30.793 6.987 53.779 34.376 53.779 67.125s-22.986 60.139-53.779 67.126c4.971 1.128 10.137 1.743 15.451 1.743 38.235 0 69.23-30.833 69.23-68.869 0-38.034-30.995-68.868-69.23-68.868z" fill="#de646e"/><path d="m389.804 142.854-158.185 96.581 163.709 219.038.743-312.093c.008-3.22-3.518-5.204-6.267-3.526z" fill="#f2d59c"/><path d="m396.015 169.964.056-23.583c.008-3.221-3.518-5.205-6.267-3.526l-158.185 96.581 15.859 21.219z" fill="#ecc372"/><path d="m306.022 114.62 51.381 48.017-104.197 63.618 41.129-108.93c1.809-4.791 7.937-6.21 11.687-2.705z" fill="#ffe07d"/><path d="m306.022 114.619c-3.75-3.505-9.878-2.086-11.687 2.706l-4.257 11.273c18.307 17.109 15.261 46.959-6.126 60.017l-21.489 13.12-9.258 24.52 104.197-63.618z" fill="#ffd064"/><path d="m365.187 512h-218.374c-17.067 0-30.902-13.763-30.902-30.74v-336.247c0-2.891 2.899-4.883 5.597-3.846l54.523 20.937c132.607 50.923 220.057 177.754 220.057 319.155.001 16.978-13.835 30.741-30.901 30.741z" fill="#f2d59c"/><path d="m176.032 162.104-54.523-20.937c-2.698-1.036-5.597.956-5.597 3.846v5.871l29.218 11.22c132.607 50.923 220.057 177.754 220.057 319.155 0 16.977-13.835 30.74-30.902 30.74h30.902c17.067 0 30.902-13.763 30.902-30.74 0-141.401-87.45-268.232-220.057-319.155z" fill="#ecc372"/></g><g><g><path d="m167.157 367.838c-1.977 0-3.954-.754-5.463-2.263-12.852-12.852-12.852-33.764 0-46.615 3.017-3.017 7.909-3.017 10.925 0 3.017 3.017 3.017 7.909 0 10.925-6.828 6.828-6.828 17.937 0 24.765 3.017 3.017 3.017 7.909 0 10.925-1.508 1.509-3.485 2.263-5.462 2.263z" fill="#f9f0d9"/></g><g><path d="m167.157 460.544c-1.977 0-3.954-.754-5.463-2.263-12.852-12.852-12.852-33.764 0-46.615 3.017-3.017 7.909-3.017 10.925 0 3.017 3.017 3.017 7.909 0 10.925-6.828 6.828-6.828 17.937 0 24.765 3.017 3.017 3.017 7.909 0 10.925-1.508 1.508-3.485 2.263-5.462 2.263z" fill="#f9f0d9"/></g></g><g><path d="m213.51 414.191c-1.977 0-3.954-.754-5.463-2.263-12.852-12.852-12.852-33.764 0-46.615 3.017-3.017 7.909-3.017 10.925 0 3.017 3.017 3.017 7.909 0 10.925-6.828 6.828-6.828 17.937 0 24.765 3.017 3.017 3.017 7.909 0 10.925-1.508 1.509-3.485 2.263-5.462 2.263z" fill="#f9f0d9"/></g></g></svg>