<svg id="Capa_1" enable-background="new 0 0 512 512" height="512" viewBox="0 0 512 512" width="512" xmlns="http://www.w3.org/2000/svg"><g><path d="m256 0c-141.385 0-256 114.615-256 256 0 32.996 6.243 64.535 17.611 93.498 37.344 95.142 130 147.049 238.389 147.049s201.044-51.907 238.389-147.049c11.368-28.963 17.611-60.502 17.611-93.498 0-141.385-114.615-256-256-256zm0 321.269c-36.047 0-65.269-29.222-65.269-65.269s29.222-65.269 65.269-65.269 65.269 29.222 65.269 65.269-29.222 65.269-65.269 65.269z" fill="#feaee1"/><g><path d="m256 0c-5.19 0-10.339.173-15.453.478 134.188 7.991 240.548 119.327 240.548 255.522s-106.36 247.531-240.547 255.522c5.113.305 10.262.478 15.452.478 55.389 0 104.078-24.597 145.968-54.496 40.084-28.61 74.16-61.484 92.421-108.006 11.368-28.963 17.611-60.502 17.611-93.498 0-141.385-114.615-256-256-256z" fill="#fe93d3"/></g><path d="m494.385 349.496h-2.392c-39.334 0-39.334 45.328-78.668 45.328s-39.334-45.328-78.668-45.328c-39.332 0-39.332 45.328-78.664 45.328-39.331 0-39.331-45.328-78.661-45.328-39.331 0-39.331 45.328-78.663 45.328-39.331 0-39.331-45.328-78.662-45.328h-2.392c37.345 95.142 129.997 162.504 238.385 162.504s201.04-67.362 238.385-162.504z" fill="#d1a08f"/><path d="m494.385 349.496h-2.392c-39.334 0-39.334 45.328-78.668 45.328s-39.334-45.328-78.668-45.328c-39.332 0-39.332 45.328-78.664 45.328-39.331 0-39.331-45.328-78.661-45.328-39.331 0-39.331 45.328-78.663 45.328-39.331 0-39.331-45.328-78.662-45.328h-2.392c37.345 95.142 129.997 162.504 238.385 162.504s201.04-67.362 238.385-162.504z" fill="#d1a08f"/><path d="m494.385 349.496h-2.392c-18.705 0-28.515 10.251-37.89 21.004-39.855 79.545-119.924 135.446-213.556 141.022.008.006.016.012.024.018 5.105.304 10.249.46 15.429.46 108.388 0 201.04-67.362 238.385-162.504z" fill="#c68d7a"/><g><path d="m413.954 199.61c-7.714 3.651-16.927.356-20.577-7.358l-21.285-44.978c-3.65-7.715-.354-16.926 7.358-20.578 7.714-3.651 16.927-.356 20.577 7.358l21.285 44.978c3.7 7.804.162 17.019-7.358 20.578z" fill="#fff"/></g><g><path d="m193.165 146.444c7.97-3.052 11.956-11.987 8.903-19.957l-17.797-46.468c-3.053-7.97-11.988-11.954-19.958-8.904-7.97 3.052-11.956 11.987-8.903 19.957l17.797 46.468c3.082 8.067 12.188 11.88 19.958 8.904z" fill="#fff"/></g><g><path d="m52.519 210.383c4.158 7.453 13.57 10.123 21.023 5.965l43.454-24.244c7.453-4.159 10.121-13.571 5.966-21.024-4.158-7.453-13.57-10.123-21.023-5.965l-43.454 24.244c-7.546 4.201-10.02 13.758-5.966 21.024z" fill="#aee69c"/></g><g><path d="m62.036 277.573c-2.593 8.131 1.896 16.824 10.027 19.417l47.407 15.119c8.131 2.592 16.823-1.898 19.418-10.027 2.593-8.131-1.896-16.824-10.027-19.417l-47.407-15.119c-8.226-2.631-16.89 2.1-19.418 10.027z" fill="#ffe179"/></g><g><path d="m391.787 301.764c3.966 7.557 13.307 10.467 20.864 6.5l44.059-23.126c7.557-3.967 10.465-13.308 6.501-20.865-3.966-7.557-13.307-10.467-20.864-6.5l-44.059 23.126c-7.651 4.007-10.368 13.498-6.501 20.865z" fill="#aee69c"/></g><g><path d="m274.426 119.536c-7.481-4.107-10.215-13.502-6.107-20.982l23.949-43.617c4.109-7.481 13.502-10.213 20.983-6.108 7.481 4.108 10.215 13.502 6.107 20.982l-23.949 43.617c-4.15 7.574-13.69 10.112-20.983 6.108z" fill="#ffe179"/></g></g></svg>